<svg xmlns="http://www.w3.org/2000/svg" width="152" height="156" viewBox="0 0 152 156">
  <g fill="none" fill-rule="evenodd" transform="translate(-16 -18)">
    <circle cx="92" cy="94" r="76" fill="#000"/>
    <path fill="#FFF" d="M25.63422,72.1944286 C24.9742167,71.3144242 24.64422,70.3977667 24.64422,69.4444286 C24.64422,68.4910905 25.2675471,66.9144396 26.51422,64.7144286 C27.7608929,62.5144176 28.8608819,61.4510949 29.81422,61.5244286 C30.7675581,61.5977623 32.9675361,61.5977623 36.41422,61.5244286 C39.8609039,61.4510949 42.1708808,61.1944308 43.34422,60.7544286 C44.5175592,60.3144264 45.3975504,59.3611026 45.98422,57.8944286 C46.5708896,56.2810872 48.0375416,53.567781 50.38422,49.7544286 C55.517579,39.7810454 59.1108764,33.98777 61.16422,32.3744286 C63.2175636,30.7610872 65.6008731,29.8077634 68.31422,29.5144286 C71.0275669,29.2210938 73.6308742,29.8810872 76.12422,31.4944286 C78.324231,34.574444 78.3975636,37.6544132 76.34422,40.7344286 C75.4642156,42.4944374 74.0708962,44.767748 72.16422,47.5544286 C70.2575438,50.3411092 68.8642244,52.5410872 67.98422,54.1544286 C65.4908742,57.6744462 65.1242112,59.5810938 66.88422,59.8744286 C68.6442288,60.1677634 72.9708522,59.7644341 79.86422,58.6644286 C86.7575878,57.5644231 90.6442156,60.0943978 91.52422,66.2544286 C91.9642222,69.7744462 91.5975592,71.9010916 90.42422,72.6344286 C89.2508808,73.3677656 85.8775812,73.7344286 80.30422,73.7344286 C75.6108632,74.4677656 71.1742409,74.8710949 66.99422,74.9444286 C62.8141991,75.0177623 60.2842244,75.2010938 59.40422,75.4944286 C57.6442112,75.9344308 56.2508918,77.3277502 55.22422,79.6744286 C54.7842178,79.9677634 54.2708896,80.774422 53.68422,82.0944286 C52.8042156,83.8544374 50.9709006,87.3010696 48.18422,92.4344286 C44.3708676,103.581151 41.4375636,115.094369 39.38422,126.974429 C38.9442178,129.907777 39.090883,131.961089 39.82422,133.134429 C40.557557,134.307768 42.9042002,135.114426 46.86422,135.554429 C53.9042552,136.287766 61.6041782,134.16112 69.96422,129.174429 L75.90422,125.654429 C76.9308918,123.89442 78.544209,124.847744 80.74422,128.514429 C81.3308896,129.394433 81.7708852,130.274424 82.06422,131.154429 C82.06422,136.874457 78.9842508,141.494411 72.82422,145.014429 C66.8108566,148.827781 60.504253,151.284423 53.90422,152.384429 C47.304187,153.484434 42.3175702,153.704432 38.94422,153.044429 C35.5708698,152.384425 32.417568,150.404445 29.48422,147.104429 C26.550872,143.804412 24.717557,140.981107 23.98422,138.634429 L22.88422,136.874429 C22.0042156,136.141092 21.7108852,132.364463 22.00422,125.544429 C22.2975548,118.724395 22.810883,113.921109 23.54422,111.134429 C24.4242244,107.614411 26.9175328,100.207818 31.02422,88.9144286 L36.96422,76.1544286 L28.16422,73.7344286 C27.1375482,73.5877612 26.2942233,73.074433 25.63422,72.1944286 Z M167.985359,62.9378526 C169.745368,66.6045376 170.625359,69.3178438 170.625359,71.0778526 C170.625359,72.9845288 168.865377,76.6511588 165.345359,82.0778526 C163.438683,85.891205 162.448693,87.9811841 162.375359,88.3478526 C162.302026,88.7145211 162.155361,89.1178504 161.935359,89.5578526 C161.715358,89.9978548 161.568693,90.2545189 161.495359,90.3278526 C161.422026,90.4011863 161.275361,90.5845178 161.055359,90.8778526 C160.835358,91.1711874 160.652027,91.3178526 160.505359,91.3178526 C160.358692,91.3178526 160.175361,91.3911852 159.955359,91.5378526 C159.735358,91.68452 159.515361,91.68452 159.295359,91.5378526 C159.075358,91.3911852 158.232033,91.3545189 156.765359,91.4278526 C155.298685,91.5011863 153.538703,90.4378636 151.485359,88.2378526 C149.432016,86.0378416 148.405359,83.8378636 148.405359,81.6378526 C148.405359,79.4378416 149.065353,77.3111962 150.385359,75.2578526 C151.705366,73.204509 152.365359,71.9945211 152.365359,71.6278526 C152.365359,71.2611841 151.705366,71.0778526 150.385359,71.0778526 C146.865342,71.0778526 141.988724,73.204498 135.755359,77.4578526 C129.521995,81.7112072 126.405359,86.4411599 126.405359,91.6478526 C126.405359,96.8545453 127.725346,101.584498 130.365359,105.837853 C131.538699,107.011192 133.262015,110.49449 135.535359,116.287853 C137.808704,122.081215 138.945359,127.104498 138.945359,131.357853 C138.945359,135.611207 137.002046,139.057839 133.115359,141.697853 C129.228673,144.337866 123.875394,145.657853 117.055359,145.657853 C110.235325,145.657853 104.222052,143.457875 99.0153594,139.057853 C93.8086667,134.657831 91.2053594,130.111209 91.2053594,125.417853 C91.2053594,122.924507 92.2320158,121.677853 94.2853594,121.677853 C94.872029,121.82452 96.9253418,122.961175 100.445359,125.087853 C103.965377,127.21453 106.898681,128.277853 109.245359,128.277853 C115.112055,128.277853 118.33869,126.664535 118.925359,123.437853 C118.925359,121.384509 117.898703,118.30454 115.845359,114.197853 C110.712,106.571148 107.852029,96.451249 107.265359,83.8378526 C107.265359,78.7044936 112.325309,72.4712226 122.445359,65.1378526 C132.56541,57.8044826 140.998659,53.7711896 147.745359,53.0378526 C155.812066,53.0378526 160.762017,53.7711786 162.595359,55.2378526 C164.428702,56.7045266 166.225351,59.2711676 167.985359,62.9378526 Z" transform="rotate(-29 96.26 91.431)"/>
  </g>
</svg>
